<?xml version="1.0" standalone="no"?>
<!DOCTYPE svg PUBLIC "-//W3C//DTD SVG 1.1//EN" "http://www.w3.org/Graphics/SVG/1.1/DTD/svg11.dtd" >
<svg xmlns="http://www.w3.org/2000/svg">
<metadata>Generated by IcoMoon</metadata>
<defs>
<font id="icomoon" horiz-adv-x="1024">
<font-face units-per-em="1024" ascent="960" descent="-64" />
<missing-glyph horiz-adv-x="1024" />
<glyph unicode="&#x20;" horiz-adv-x="512" d="" />
<glyph unicode="&#xe900;" glyph-name="arrow-btn" horiz-adv-x="4688" d="M136.709 432.582v0l421.956 459.42zM512.195 938.539l-512.452-511.81 512.452-512.58 92.94 92.94-419.384 419.512 419.384 418.87-92.94 93.068zM136.709 432.582h4551.476zM136.714 498.359v-131.451h4551.476v131.451h-4551.476z" />
<glyph unicode="&#xe901;" glyph-name="arrow-mini" horiz-adv-x="1872" d="M87.591 939.154l-88.078-88.078 936.010-936.010 936.010 936.010-88.078 88.078-847.932-847.932-847.932 847.932z" />
<glyph unicode="&#xe902;" glyph-name="arrow-red" horiz-adv-x="4554" d="M4044.032 938.667c-0.542 0.017-1.18 0.026-1.82 0.026-17.503 0-33.347-7.101-44.809-18.578l-0.001-0.001c-11.457-11.459-18.543-27.289-18.543-44.774s7.086-33.315 18.543-44.774v0l403.587-404.205-403.587-403.587c-11.457-11.459-18.543-27.289-18.543-44.774s7.086-33.315 18.543-44.774v0c11.459-11.457 27.289-18.543 44.774-18.543s33.315 7.086 44.774 18.543l448.361 448.361c11.456 11.46 18.541 27.29 18.541 44.774s-7.085 33.314-18.541 44.774l-448.361 448.979c-11.027 11.043-26.109 18.035-42.822 18.551l-0.097 0.002zM63.327 483.998c-34.975 0-63.327-28.353-63.327-63.327v0c0-34.975 28.353-63.327 63.327-63.327v0h4385.405c34.975 0 63.327 28.353 63.327 63.327v0c0 34.975-28.353 63.327-63.327 63.327v0h-4385.405z" />
<glyph unicode="&#xe903;" glyph-name="arrow-slide-black" horiz-adv-x="1856" d="M512-85.333l-512 512 512 512 93.33-92.673-419.327-419.327 419.327-419.327-93.33-92.673zM136.709 498.308h1719.374v-131.451h-1719.374v131.451z" />
<glyph unicode="&#xe904;" glyph-name="arrow-slider" horiz-adv-x="1895" d="M511.694 938.936l-511.425-512.231 511.425-511.559 48.656 48.656-462.903 462.903 463.038 463.575-48.79 48.656zM95.027 467.296v-68.817h1800.134v68.817h-1800.134z" />
<glyph unicode="&#xe905;" glyph-name="arrow-speedbar" horiz-adv-x="1833" d="M1322.564 938.667c-0.569 0.020-1.238 0.031-1.909 0.031-16.267 0-30.999-6.575-41.683-17.212l0.002 0.002c-10.703-10.693-17.324-25.471-17.324-41.795s6.621-31.102 17.324-41.794l411.027-411.283-411.026-411.026c-10.703-10.693-17.324-25.471-17.324-41.795s6.621-31.102 17.324-41.794l0.001-0.001c10.693-10.703 25.471-17.324 41.795-17.324s31.102 6.621 41.794 17.324v0l452.821 452.821c10.702 10.694 17.322 25.471 17.322 41.795s-6.62 31.101-17.322 41.795v0l-452.821 453.077c-10.294 10.246-24.349 16.722-39.914 17.178l-0.086 0.002zM58.974 480.462c-32.547-0.058-58.916-26.427-58.974-58.969v-0.006c0-0.046 0-0.1 0-0.154 0-32.591 26.391-59.019 58.969-59.077h1672.57c0.046 0 0.1 0 0.154 0 32.627 0 59.077 26.45 59.077 59.077 0 0.054 0 0.108 0 0.162v-0.008c-0.058 32.583-26.486 58.975-59.077 58.975-0.054 0-0.108 0-0.162 0h-1672.556z" />
<glyph unicode="&#xe906;" glyph-name="bank" horiz-adv-x="1036" d="M692.111 280.143c-0.844-0.061-1.828-0.095-2.82-0.095-22.034 0-40.092 17.022-41.741 38.634l-0.009 0.142c3.046 22.093 21.802 38.925 44.491 38.925s41.445-16.832 44.464-38.69l0.027-0.235c-0.051-0.539-0.080-1.166-0.080-1.799 0-11.253 9.122-20.375 20.375-20.375s20.375 9.122 20.375 20.375c0 0.633-0.029 1.26-0.085 1.879l0.006-0.080c-1.165 37.947-28.354 69.22-64.264 76.634l-0.522 0.090v10.506c-0.954 10.452-9.676 18.576-20.295 18.576s-19.341-8.124-20.289-18.496l-0.006-0.080v-10.506c-36.395-7.515-63.539-38.798-64.624-76.61l-0.003-0.115c1.477-44.292 37.737-79.636 82.253-79.636 0.967 0 1.929 0.017 2.888 0.050l-0.139-0.004c19.009-2.821 33.428-19.026 33.428-38.599 0-21.539-17.46-38.999-38.999-38.999s-38.999 17.46-38.999 38.999c0 0.027 0 0.055 0 0.082v-0.004c0 11.165-9.051 20.216-20.216 20.216s-20.216-9.051-20.216-20.216v0c1.026-37.949 28.201-69.264 64.108-76.635l0.519-0.089v-8.755c0.954-10.452 9.676-18.576 20.295-18.576s19.341 8.124 20.289 18.496l0.006 0.080v8.755c36.463 7.45 63.682 38.754 64.783 76.608l0.003 0.116c-1.563 44.221-37.788 79.477-82.247 79.477-0.969 0-1.933-0.017-2.894-0.050l0.139 0.004zM913.689 400.641c-26.592 41.069-63.095 73.641-106.209 94.817l-1.555 0.69c-2.561 1.253-5.572 1.986-8.755 1.986-11.207 0-20.291-9.085-20.291-20.291 0-8.024 4.657-14.96 11.416-18.253l0.12-0.053c75.355-36.811 126.344-112.886 126.344-200.87 0-38.153-9.588-74.067-26.485-105.463l0.584 1.187c-1.553-2.795-2.467-6.13-2.467-9.678 0-7.699 4.304-14.393 10.637-17.807l0.107-0.053c2.768-1.489 6.055-2.37 9.545-2.388h0.005c7.692 0.066 14.36 4.384 17.775 10.716l0.053 0.108c19.345 35.745 30.715 78.249 30.715 123.41 0 52.709-15.489 101.799-42.163 142.97l0.624-1.028zM723.788 521.777h-1.273c-11.165 0-20.216-9.051-20.216-20.216s9.051-20.216 20.216-20.216h1.273c11.165 0 20.216 9.051 20.216 20.216s-9.051 20.216-20.216 20.216v0zM595.808 57.928c-75.286 36.836-126.217 112.875-126.217 200.809 0 38.177 9.6 74.112 26.518 105.523l-0.584-1.185c1.926 3.039 3.069 6.74 3.069 10.708 0 11.165-9.051 20.216-20.216 20.216-8.366 0-15.545-5.082-18.618-12.326l-0.050-0.132c-19.328-35.719-30.689-78.194-30.689-123.322 0-103.924 60.248-193.776 147.722-236.533l1.555-0.686c2.516-1.305 5.492-2.070 8.648-2.070 0.038 0 0.075 0 0.113 0h-0.006c0.053-0.001 0.116-0.001 0.179-0.001 11.165 0 20.216 9.051 20.216 20.216 0 8.051-4.706 15.002-11.517 18.254l-0.122 0.052zM661.708 36.121h-1.114c-0.539 0.051-1.166 0.080-1.799 0.080-11.253 0-20.375-9.122-20.375-20.375s9.122-20.375 20.375-20.375c0.633 0 1.26 0.029 1.879 0.085l-0.080-0.006h1.273c0.539-0.051 1.166-0.080 1.799-0.080 11.253 0 20.375 9.122 20.375 20.375s-9.122 20.375-20.375 20.375c-0.633 0-1.26-0.029-1.879-0.085l0.080 0.006zM783.958 590.224c-2.642 6.092-5.625 11.323-9.094 16.183l0.18-0.265h52.688c51.429 0 93.12 41.691 93.12 93.12s-41.691 93.12-93.12 93.12v0h-162.044c9.969 14.506 15.921 32.448 15.921 51.781 0 0.263-0.001 0.526-0.003 0.789v-0.040c0.001 0.142 0.001 0.311 0.001 0.48 0 51.293-41.401 92.917-92.609 93.277h-495.877c-51.429 0-93.12-41.691-93.12-93.12s41.691-93.12 93.12-93.12v0h161.567c-10.256-14.698-16.387-32.938-16.387-52.609s6.131-37.91 16.586-52.911l-0.199 0.302h-52.37c-0.031 0-0.068 0-0.105 0-51.341 0-92.961-41.62-92.961-92.961 0-29.465 13.708-55.727 35.095-72.759l0.189-0.145c-21.52-17.207-35.186-43.46-35.186-72.904s13.666-55.697 35.001-72.761l0.185-0.143c-21.517-17.177-35.183-43.405-35.183-72.824s13.666-55.647 34.996-72.681l0.187-0.144c-21.521-17.207-35.186-43.46-35.186-72.904 0-51.375 41.605-93.034 92.96-93.12h238.777c62.954-67.299 152.297-109.238 251.435-109.238 189.978 0 343.986 154.008 343.986 343.986 0 157.438-105.769 290.173-250.126 331.025l-2.424 0.586zM827.732 752.427c0.865 0.051 1.877 0.080 2.895 0.080 29.099 0 52.688-23.589 52.688-52.688s-23.589-52.688-52.688-52.688c-1.018 0-2.030 0.029-3.034 0.086l0.139-0.006h-495.843c-27.826 1.578-49.793 24.528-49.793 52.609s21.967 51.031 49.654 52.602l0.139 0.006zM93.12 793.018c-0.865-0.051-1.877-0.080-2.895-0.080-29.099 0-52.688 23.589-52.688 52.688s23.589 52.688 52.688 52.688c1.018 0 2.030-0.029 3.034-0.086l-0.139 0.006h495.843c27.826-1.578 49.793-24.528 49.793-52.609s-21.967-51.031-49.654-52.602l-0.139-0.006zM202.317 606.778h495.843c8.393-0.023 16.329-1.958 23.402-5.393l-0.321 0.141c-9.71 0.796-19.261 1.114-29.13 1.114-0.085 0-0.185 0-0.286 0-95.006 0-180.988-38.641-243.085-101.064l-0.014-0.015h-246.409c-27.826 1.578-49.793 24.528-49.793 52.609s21.967 51.031 49.654 52.602l0.139 0.006zM202.317 461.129h211.549c-22.134-30.114-39.854-65.156-51.26-102.938l-0.633-2.439h-159.179c-29.099 0-52.688 23.589-52.688 52.688s23.589 52.688 52.688 52.688v0zM202.317 315.321h150.424c-2.938-17.081-4.617-36.755-4.617-56.82 0-17.070 1.215-33.857 3.564-50.278l-0.221 1.88h-149.151c-27.826 1.578-49.793 24.528-49.793 52.609s21.967 51.031 49.654 52.602l0.139 0.006zM202.317 64.455c-27.826 1.578-49.793 24.528-49.793 52.609s21.967 51.031 49.654 52.602l0.139 0.006h157.428c10.81-40.012 27.178-75.053 48.532-106.429l-0.778 1.211zM692.111-44.901c-167.649 0-303.555 135.906-303.555 303.555s135.906 303.555 303.555 303.555c167.649 0 303.555-135.906 303.555-303.555v0c-0.271-167.539-136.015-303.283-303.529-303.555h-0.026z" />
<glyph unicode="&#xe907;" glyph-name="beaf" d="M3.060 302.511l61.198-325.575c9.312-35.325 40.524-61.12 77.918-62.114l0.11-0.002h207.768c39.583 0.598 72.387 28.89 79.928 66.329l0.089 0.53 49.877 323.127c1.585 6.118 2.495 13.142 2.495 20.378 0 45.852-36.541 83.17-82.091 84.421l-0.116 0.003h-24.479v136.625c-2.536 73.463-62.7 132.054-136.549 132.054s-134.012-58.591-136.542-131.822l-0.006-0.231v-136.625h-20.501c-45.659-1.367-82.153-38.707-82.153-84.571 0-8.017 1.115-15.773 3.198-23.122l-0.144 0.596zM136.778 546.233c0 56.529 45.825 102.354 102.354 102.354s102.354-45.825 102.354-102.354v0-136.625h-50.795v34.118c0.049 0.485 0.076 1.048 0.076 1.617 0 9.464-7.672 17.136-17.136 17.136s-17.136-7.672-17.136-17.136c0-0.569 0.028-1.132 0.082-1.688l-0.006 0.070v-34.118h-34.424v34.118c0.049 0.485 0.076 1.048 0.076 1.617 0 9.464-7.672 17.136-17.136 17.136s-17.136-7.672-17.136-17.136c0-0.569 0.028-1.132 0.082-1.688l-0.006 0.070v-34.118h-51.254zM82.159 375.49h318.078c26.737-1.428 47.876-23.456 47.876-50.421 0-4.984-0.722-9.8-2.068-14.347l0.091 0.357-49.571-322.974c-4.399-21.927-23.117-38.343-45.813-39.164l-0.086-0.002h-26.162v34.118c-0.853 8.742-8.165 15.518-17.059 15.518s-16.206-6.776-17.053-15.448l-0.006-0.070v-34.118h-34.118v34.118c-0.853 8.742-8.165 15.518-17.059 15.518s-16.206-6.776-17.053-15.448l-0.006-0.070v-34.118h-34.118v34.118c-0.853 8.742-8.165 15.518-17.059 15.518s-16.206-6.776-17.053-15.448l-0.006-0.070v-34.118h-11.628c-21.857 0.277-40.186 15.063-45.818 35.156l-0.081 0.339-59.974 325.575c-1.455 4.498-2.294 9.674-2.294 15.046 0 27.077 21.314 49.175 48.080 50.432l0.113 0.004zM955.917 551.282v63.187c0 0 0 0 0 0.001 0 37.686-30.55 68.236-68.236 68.236-0.108 0-0.215 0-0.323-0.001h-67.913c0 0 0 0 0 0-37.716 0-68.302-30.532-68.389-68.228v-63.195c-40.522-19.406-68.050-60.014-68.236-107.072v-478.289c0.086-28.241 23-51.101 51.253-51.101 0.108 0 0.215 0 0.323 0.001h238.503c0 0 0 0 0 0 28.253 0 51.166 22.86 51.253 51.092v477.813c0 0.001 0 0.003 0 0.004 0 47.261-27.579 88.080-67.522 107.243l-0.715 0.309zM785.174 614.469c0.344 18.578 15.485 33.506 34.113 33.506 0.056 0 0.111 0 0.167 0h67.921c18.843 0 34.118-15.275 34.118-34.118v0-255.35c-1.774-36.353-31.68-65.155-68.313-65.155s-66.539 28.803-68.306 64.997l-0.006 0.158zM990.035-34.079c-0.087-9.398-7.725-16.983-17.135-16.983 0 0 0 0-0.001 0h-238.52c0 0 0 0-0.001 0-9.41 0-17.048 7.585-17.135 16.974v477.813c0.038 27.846 13.331 52.58 33.907 68.235l0.211 0.154v-152.996c2.188-54.884 47.21-98.548 102.431-98.548s100.243 43.664 102.424 98.35l0.006 0.198v152.996c20.787-15.809 34.080-40.543 34.118-68.383v-0.006zM836.427 563.216c9.464 0 17.136 7.672 17.136 17.136v0 16.983c0.049 0.485 0.076 1.048 0.076 1.617 0 9.464-7.672 17.136-17.136 17.136s-17.136-7.672-17.136-17.136c0-0.569 0.028-1.132 0.082-1.688l-0.006 0.070v-16.983c0-0.045-0.001-0.099-0.001-0.153 0-9.379 7.603-16.983 16.983-16.983 0 0 0 0 0.001 0v0zM836.427 341.984c9.464 0 17.136 7.672 17.136 17.136v0 152.996c-0.853 8.742-8.165 15.518-17.059 15.518s-16.206-6.776-17.053-15.448l-0.006-0.070v-152.996c0-0.045-0.001-0.099-0.001-0.153 0-9.379 7.603-16.983 16.983-16.983 0 0 0 0 0.001 0v0zM921.799 187.764h-136.625c-8.742-0.853-15.518-8.165-15.518-17.059s6.776-16.206 15.448-17.053l0.070-0.006h136.625c8.742 0.853 15.518 8.165 15.518 17.059s-6.776 16.206-15.448 17.053l-0.070 0.006zM921.799 102.546h-136.625c-8.742-0.853-15.518-8.165-15.518-17.059s6.776-16.206 15.448-17.053l0.070-0.006h136.625c8.742 0.853 15.518 8.165 15.518 17.059s-6.776 16.206-15.448 17.053l-0.070 0.006zM563.33 938.667c-56.494-0.087-102.267-45.861-102.354-102.346v-273.105c0 0 0 0 0 0 0-28.222 22.878-51.101 51.101-51.101 0.054 0 0.108 0 0.161 0h-0.008v-367.19c-10.332-5.271-17.537-15.375-18.655-27.25l-0.010-0.136c-4.896-55.078-9.639-107.097-14.229-155.291-0.091-0.94-0.143-2.032-0.143-3.136 0-14.493 8.957-26.894 21.637-31.971l0.232-0.082c18.444-7.695 39.873-12.165 62.346-12.165s43.901 4.47 63.446 12.569l-1.1-0.404c12.912 5.208 21.859 17.636 21.859 32.153 0 1.069-0.048 2.126-0.143 3.17l0.010-0.134c-4.743 48.041-9.486 100.212-14.229 155.291-1.129 12.011-8.334 22.116-18.473 27.297l-0.193 0.089v367.19c0.045 0 0.099 0 0.153 0 28.222 0 51.101 22.878 51.101 51.101 0 0 0 0 0 0v0 273.097c-0.087 56.547-45.948 102.354-102.507 102.354v0zM513.3-40.505c4.743 47.888 9.486 100.212 14.382 155.75 10.724 3.205 23.047 5.050 35.801 5.050s25.077-1.845 36.717-5.282l-0.916 0.232c4.743-55.231 9.486-107.097 13.617-155.903-14.73-6.168-31.846-9.752-49.8-9.752s-35.070 3.583-50.674 10.074l0.874-0.322zM580.466 153.187c-5.114 0.511-11.052 0.803-17.059 0.803s-11.945-0.292-17.803-0.861l0.743 0.058v358.928h34.118zM614.584 546.845h-102.354c0 0 0 0-0.001 0-9.41 0-17.048 7.585-17.135 16.974v272.493c1.774 36.353 31.68 65.155 68.313 65.155s66.539-28.803 68.306-64.997l0.006-0.158v-17.136h-34.118c-0.485 0.049-1.048 0.076-1.617 0.076-9.464 0-17.136-7.672-17.136-17.136s7.672-17.136 17.136-17.136c0.569 0 1.132 0.028 1.688 0.082l-0.070-0.006h34.118v-34.118h-34.118c-0.485 0.049-1.048 0.076-1.617 0.076-9.464 0-17.136-7.672-17.136-17.136s7.672-17.136 17.136-17.136c0.569 0 1.132 0.028 1.688 0.082l-0.070-0.006h34.118v-34.118h-34.118c-0.485 0.049-1.048 0.076-1.617 0.076-9.464 0-17.136-7.672-17.136-17.136s7.672-17.136 17.136-17.136c0.569 0 1.132 0.028 1.688 0.082l-0.070-0.006h34.118v-34.118h-34.118c-0.485 0.049-1.048 0.076-1.617 0.076-9.464 0-17.136-7.672-17.136-17.136s7.672-17.136 17.136-17.136c0.569 0 1.132 0.028 1.688 0.082l-0.070-0.006h34.118v-17.136c-0.087-9.398-7.725-16.983-17.135-16.983 0 0 0 0-0.001 0v0zM222.303 69.805c5.106-0.904 10.984-1.421 16.983-1.421 56.444 0 102.201 45.757 102.201 102.201 0 0.069 0 0.138 0 0.208v-0.011c-1.827 61.244-34.573 114.459-83.098 144.76l-0.744 0.433c-5.234 3.49-11.669 5.568-18.589 5.568s-13.355-2.079-18.713-5.646l0.124 0.078c-45.070-28.746-76.177-75.962-82.688-130.725l-0.082-0.852c-0.457-3.662-0.718-7.899-0.718-12.198 0-50.952 36.628-93.349 84.989-102.297l0.641-0.098zM238.979 287.517c39.919-24.585 66.573-67.359 68.382-116.48l0.007-0.256c-0.387-37.474-30.856-67.704-68.386-67.704-37.77 0-68.389 30.619-68.389 68.389 0 3.592 0.277 7.119 0.81 10.561l-0.049-0.383c5.811 44.822 31.133 82.755 67.025 105.518l0.599 0.355z" />
<glyph unicode="&#xe908;" glyph-name="burger" horiz-adv-x="1306" d="M0 938.667h1306.483v-105.931h-1306.483v105.931zM0 479.633h1306.483v-105.931h-1306.483v105.931zM0 20.598h1306.483v-105.931h-1306.483v105.931z" />
<glyph unicode="&#xe909;" glyph-name="caffe" d="M136.523 170.628h34.17v-68.34h-34.17v68.34zM1024 716.719v136.68c0 9.349-7.579 16.928-16.928 16.928v0 34.17c-0.089 18.836-15.334 34.081-34.161 34.17h-921.656c-18.836-0.089-34.081-15.334-34.17-34.161v-34.179c-0.047 0-0.102 0.001-0.157 0.001-9.349 0-16.928-7.579-16.928-16.928 0 0 0-0.001 0-0.001v0-136.68c0 0 0 0 0-0.001 0-9.349 7.579-16.928 16.928-16.928 0.055 0 0.11 0 0.165 0.001h-0.008v-751.111h-17.085v-34.013h1024v34.013h-16.928v751.111c9.349 0 16.928 7.579 16.928 16.928v0zM51.255 904.497h921.647v-34.17h-921.647zM290.131-51.633h-170.693v341.699h170.693zM290.131 324.549h-170.693v16.771h170.693zM290.131 375.804h-170.693v16.615h170.693zM972.902-51.32h-648.601v460.824c0 9.436-7.649 17.085-17.085 17.085v0h-204.863c-9.436 0-17.085-7.649-17.085-17.085v0-460.824h-34.013v598.13c13.9-10.945 31.661-17.555 50.966-17.555 0.046 0 0.093 0 0.139 0h-0.007c27.95 0.011 52.737 13.543 68.177 34.41l0.163 0.23c15.545-21.125 40.311-34.68 68.243-34.68 18.787 0 36.141 6.132 50.171 16.504l-0.23-0.162c7.106 5.172 13.166 11.233 18.177 18.106l0.162 0.233c15.545-21.125 40.311-34.68 68.243-34.68 18.787 0 36.141 6.132 50.171 16.504l-0.23-0.162c7.106 5.172 13.166 11.233 18.177 18.106l0.162 0.233c15.545-21.125 40.311-34.68 68.243-34.68 18.787 0 36.141 6.132 50.171 16.504l-0.23-0.162c7.011 5.103 12.973 11.115 17.865 17.946l0.161 0.236c15.576-21.134 40.37-34.692 68.332-34.692 18.811 0 36.188 6.136 50.24 16.516l-0.231-0.163c7.053 5.17 13.063 11.23 18.019 18.101l0.163 0.238c15.575-21.14 40.374-34.703 68.34-34.703s52.765 13.563 68.176 34.471l0.164 0.233c15.54-21.093 40.28-34.63 68.181-34.64h0.002c0.039 0 0.085 0 0.132 0 19.482 0 37.407 6.669 51.616 17.848l-0.179-0.136zM51.255 614.366v85.425h102.353v-85.425c0.050-0.847 0.078-1.837 0.078-2.833 0-28.307-22.948-51.255-51.255-51.255s-51.255 22.948-51.255 51.255c0 0.997 0.028 1.987 0.085 2.969l-0.006-0.136zM187.778 614.366v85.425h102.353v-85.425c0.050-0.847 0.078-1.837 0.078-2.833 0-28.307-22.948-51.255-51.255-51.255s-51.255 22.948-51.255 51.255c0 0.997 0.028 1.987 0.085 2.969l-0.006-0.136zM324.301 614.366v85.425h102.353v-85.425c0.050-0.847 0.078-1.837 0.078-2.833 0-28.307-22.948-51.255-51.255-51.255s-51.255 22.948-51.255 51.255c0 0.997 0.028 1.987 0.085 2.969l-0.006-0.136zM460.824 614.366v85.425h102.353v-85.425c0.050-0.847 0.078-1.837 0.078-2.833 0-28.307-22.948-51.255-51.255-51.255s-51.255 22.948-51.255 51.255c0 0.997 0.028 1.987 0.085 2.969l-0.006-0.136zM597.346 614.366v85.425h102.51v-85.425c0-28.307-22.948-51.255-51.255-51.255s-51.255 22.948-51.255 51.255v0zM733.869 614.366v85.425h102.51v-85.425c0-28.307-22.948-51.255-51.255-51.255s-51.255 22.948-51.255 51.255v0zM972.902 614.366c0-28.307-22.948-51.255-51.255-51.255s-51.255 22.948-51.255 51.255v0 85.425h102.51zM989.987 733.804h-956.13v102.51h956.13zM921.647 494.928h-545.465c-9.436 0-17.085-7.649-17.085-17.085v0-477.908c-0.002-0.093-0.003-0.203-0.003-0.313 0-9.436 7.649-17.085 17.085-17.085 0.001 0 0.002 0 0.003 0h545.464c9.436 0 17.085 7.649 17.085 17.085v0 478.222c0 9.436-7.649 17.085-17.085 17.085v0zM904.562 17.020h-511.922v443.739h511.922zM785.124 341.321h-17.085v34.17c0 0 0 0 0 0.001 0 9.349-7.579 16.928-16.928 16.928-0.055 0-0.11 0-0.165-0.001h-34.162v17.085h34.17v34.17h-51.098c-9.436 0-17.085-7.649-17.085-17.085v0-34.17h-136.523c-0.047 0-0.102 0.001-0.157 0.001-9.349 0-16.928-7.579-16.928-16.928 0 0 0-0.001 0-0.001v0-34.17h-17.085c-9.436 0-17.085-7.649-17.085-17.085v0-68.34c0-9.436 7.649-17.085 17.085-17.085v0h18.339l15.674-189.032c0.749-8.775 8.031-15.621 16.923-15.674h170.855c0.017 0 0.038 0 0.058 0 8.939 0 16.275 6.865 17.022 15.611l0.004 0.063 15.674 189.032h18.496c9.436 0 17.085 7.649 17.085 17.085v0 68.34c0 9.436-7.649 17.085-17.085 17.085v0zM563.176 358.719h170.693v-17.085h-170.693zM718.195 68.588h-139.188l-14.734 170.223h167.715zM768.039 272.981h-238.876v34.17h238.876z" />
<glyph unicode="&#xe90a;" glyph-name="car" horiz-adv-x="1117" d="M174.555 473.188c-32.135 0-58.185-26.050-58.185-58.185s26.050-58.185 58.185-58.185c32.135 0 58.185 26.050 58.185 58.185v0c0 32.135-26.050 58.185-58.185 58.185v0zM174.555 333.491c-44.426 0-80.44 36.014-80.44 80.44s36.014 80.44 80.44 80.44c44.426 0 80.44-36.014 80.44-80.44v0c0-44.426-36.014-80.44-80.44-80.44v0zM942.756 473.188c-32.135 0-58.185-26.050-58.185-58.185s26.050-58.185 58.185-58.185c32.135 0 58.185 26.050 58.185 58.185v0c0 32.135-26.050 58.185-58.185 58.185v0zM942.756 333.491c-44.426 0-80.44 36.014-80.44 80.44s36.014 80.44 80.44 80.44c44.426 0 80.44-36.014 80.44-80.44v0c0-44.426-36.014-80.44-80.44-80.44v0zM1070.655 449.861c0 51.386-41.656 93.042-93.042 93.042v0h-837.916c-51.386 0-93.042-41.656-93.042-93.042v0-186.084c0-0.080 0-0.174 0-0.268 0-51.386 41.656-93.042 93.042-93.042 0 0 0 0 0.001 0h93.042v71.055c0 51.386 41.656 93.042 93.042 93.042h465.479c0.159 0.001 0.348 0.002 0.536 0.002 51.386 0 93.042-41.656 93.042-93.042 0-0.001 0-0.001 0-0.002v0-69.983h93.042c0 0 0 0 0 0 51.386 0 93.042 41.656 93.042 93.042 0 0.094 0 0.189 0 0.283v-0.015zM954.285 804.6c0 48.8-29.495 88.216-65.961 88.216h-659.607c-36.198-0.804-65.693-40.22-65.693-88.216v-237.566h791.261zM163.025-4.089c0-19.251 15.606-34.857 34.857-34.857h23.328c19.251 0 34.857 15.606 34.857 34.857v0 128.168h-93.042zM302.454 170.466h558.789v58.185c0 44.426-36.014 80.44-80.44 80.44v0h-443.224c-44.426 0-80.44-36.014-80.44-80.44v0-58.185zM861.243-4.089c0-19.251 15.606-34.857 34.857-34.857v0h23.328c19.251 0 34.857 15.606 34.857 34.857v0 128.168h-93.042zM1000.941 126.224v-130.313c0-44.426-36.014-80.44-80.44-80.44v0h-23.328c-44.426 0-80.44 36.014-80.44 80.44v0 128.168h-514.279v-128.168c0-44.426-36.014-80.44-80.44-80.44v0h-24.132c-44.426 0-80.44 36.014-80.44 80.44v0 130.313c-66.869 11.088-117.258 68.408-117.442 137.533v186.104c0.072 68.906 49.926 126.147 115.529 137.698l0.841 0.123v216.92c0 75.614 49.336 134.067 112.348 134.067h659.607c63.279 0 112.616-59.257 112.616-134.067v-216.115c66.388-11.776 116.183-68.956 116.37-137.8v-186.104c0-0.117 0.001-0.256 0.001-0.394 0-68.965-49.879-126.28-115.529-137.84l-0.841-0.123z" />
<glyph unicode="&#xe90b;" glyph-name="close" d="M52.56 938.54l971.387-971.387-52.507-52.507-971.387 971.387 52.507 52.507zM1023.873 886.107l-971.387-971.387-52.507 52.507 971.387 971.387 52.507-52.507z" />
<glyph unicode="&#xe90c;" glyph-name="compas" horiz-adv-x="1011" d="M877.927 860.297c22.924 22.924 49.711 24.469 67.741 6.439 11.076-11.076 14.682-25.242 10.818-39.666l10.303-2.318c4.379 17.515-0.515 34.772-14.424 48.681-22.795 22.795-55.12 21.121-82.294-6.053s-28.075-58.726-5.28-81.522c13.909-13.909 31.166-18.803 48.81-14.295l-2.318 10.303c-14.553-3.992-28.719-0.386-39.795 10.689-18.030 18.030-16.356 44.946 6.439 67.741zM956.788 877.873c-12.501 12.501-28.215 18.631-44.344 17.543s-32.401-9.172-46.823-23.593c-14.421-14.421-22.322-30.527-23.195-46.493s5.474-31.442 17.925-43.893c15.224-15.224 35.147-20.986 54.797-15.966l5.911 1.508-5.097 22.675-6.345-1.734c-12.621-3.462-24.035-0.581-33.7 9.084-7.842 7.842-11.143 17.030-10.28 27.095s6.133 21.18 16.711 31.758c10.648 10.648 21.77 15.915 31.81 16.763s19.208-2.462 27.060-10.315c9.665-9.665 12.55-21.124 9.205-33.613l-1.699-6.31 22.675-5.097 1.473 5.946c4.881 19.523-0.863 39.417-16.087 54.641zM85.932 83.057l17.257-17.257c-25.371-26.659-26.015-57.696-3.735-79.976 22.795-22.795 54.734-21.507 81.908 5.667s28.462 59.113 5.667 81.908c-21.765 21.765-51.643 21.507-77.916-1.932l-17.386 17.386 37.992 37.992-7.212 7.212-83.711-83.711 7.212-7.212zM112.591 60.262c22.924 22.924 49.711 24.469 67.741 6.439 18.288-18.288 16.485-44.818-6.439-67.741-22.795-22.795-49.454-24.727-67.741-6.439-18.030 18.030-16.356 44.946 6.439 67.741zM191.462 77.827c-11.907 11.907-26.606 18.147-41.83 17.838-13.469-0.274-26.974-6.34-39.646-16.209l-9.396 9.396 37.999 37.999-16.087 16.087-92.588-92.588 16.087-16.087 39.923 39.923 9.153-9.153c-10.704-12.883-17.36-26.747-17.907-40.617-0.618-15.662 5.664-30.834 17.855-43.026 12.476-12.476 28.071-18.714 44.118-17.734s32.228 8.964 46.649 23.385c14.421 14.421 22.422 30.619 23.403 46.667s-5.258 31.643-17.734 44.118zM175.895 62.26c7.998-7.998 11.292-17.136 10.419-27.13s-6.203-21.077-16.867-31.741c-10.595-10.595-21.654-15.91-31.672-16.798s-19.194 2.379-27.182 10.367c-7.842 7.842-11.143 17.030-10.28 27.095s6.133 21.18 16.711 31.758c10.648 10.648 21.752 15.932 31.793 16.781s19.225-2.479 27.078-10.332zM91.375 840.378c-10.045-13.909-6.826-31.295 5.795-43.916 19.962-19.962 38.636-11.591 51.386 1.159 9.144 9.144 12.879 21.121 5.795 33.356l0.773 0.773c9.659-6.826 23.825-0.902 31.553 6.826 14.038 14.038 12.106 31.424-1.803 45.333-9.273 9.273-25.757 15.969-44.174 2.189l5.28-8.629c13.909 10.303 26.272 5.667 32.197-0.258 7.856-7.856 11.72-19.189-0.129-31.037-5.924-5.924-18.030-12.879-29.234-1.674l-4.25 4.25-6.954-6.954 4.894-4.894c9.144-9.144 8.114-20.477-2.447-31.037-13.007-13.007-26.272-12.106-35.803-2.576-8.5 8.5-11.204 20.477-3.864 31.681zM189.303 888.342c-5.417 5.417-12.977 10.161-22.189 11.511s-19.846-1.017-30.163-8.737l-4.594-3.415 11.84-19.364 5.513 4.091c11.756 8.708 20.032 4.341 24.027 0.347 3.225-3.225 5.218-6.785 5.513-10.124s-0.658-7.073-5.634-12.048c-2.319-2.319-6.063-4.83-9.5-5.547s-6.508-0.461-10.852 3.883l-8.685 8.685-15.844-15.844 9.326-9.326c3.572-3.572 4.629-6.656 4.351-10.037s-2.237-7.541-6.795-12.1c-5.698-5.698-10.753-7.761-14.978-7.905s-8.138 1.516-11.944 5.322c-6.886 6.886-8.881 14.886-3.051 23.784l3.571 5.478-19.554 11.719-3.38-4.663c-11.871-16.437-7.815-37.742 6.466-52.023 10.983-10.983 22.967-14.927 33.682-13.47s19.585 7.658 26.558 14.631c5.239 5.239 9.198 11.544 10.696 18.67 0.903 4.297-1.218 8.892-2.34 13.435 4.101-0.612 8.147-2.693 11.961-1.63 6.949 1.938 13.168 5.818 17.821 10.471 8.037 8.037 11.984 17.834 11.407 27.528s-5.451 18.903-13.227 26.679zM150.715 836.232l-1.231-1.231c-0.504 0.845-0.455 1.814-1.057 2.618 0.757-0.525 1.512-0.959 2.288-1.387zM151.373 814.597c-0.010-0.048 0.028-0.108 0.017-0.156-0.114-0.542-0.769-1.052-0.936-1.595 0.279 0.594 0.684 1.148 0.919 1.751zM133.379 795.944c-2.953-1.607-5.628-4.544-8.668-4.958-0.346-0.047-0.743 0.153-1.092 0.121 3.351 0.45 6.485 3.14 9.76 4.837zM116.027 791.975c-1.385 0.38-2.839 1.113-4.299 1.838 1.482-0.561 2.738-1.545 4.299-1.838zM817.654 59.634l32.454-32.454c18.803-18.803 37.348-18.288 50.999-4.636 9.273 9.273 12.492 25.113 4.121 36.833l0.644 0.644c10.432-5.538 23.181-1.545 31.166 6.439 13.007 13.007 12.106 29.106-5.924 47.136l-29.75 29.75zM865.047 92.603l25.628-25.628c13.651-13.651 13.136-27.303 3.22-37.219s-23.954-10.818-37.606 2.833l-25.628 25.628zM870.842 98.398l31.939 31.939 22.924-22.924c13.007-13.007 13.523-24.598 4.25-33.871-10.303-10.303-23.053-11.204-36.060 1.803zM901.36 152.227l-92.588-92.588 36.89-36.89c10.151-10.151 20.898-15.701 31.516-16.33s20.558 3.881 28.361 11.684c8.969 8.969 10.964 22.57 7.142 35.191 10.675-1.384 21.448 1.374 28.794 8.72 7.47 7.47 11.538 16.913 10.471 26.8s-6.761 19.589-16.399 29.227l-34.185 34.185zM902.782 121.474l18.497-18.497c5.874-5.874 8.28-10.861 8.668-14.562s-0.767-6.765-4.438-10.436c-4.301-4.301-8.338-6.074-12.447-5.998s-9.008 2.073-14.735 7.801l-18.618 18.618 23.073 23.073zM901.828 64.84l-2.236-2.236c-0.932 1.463-1.072 2.99-2.236 4.421 1.471-0.959 2.969-1.482 4.473-2.184zM865.043 83.735l21.201-21.201c6.058-6.058 8.379-11.452 8.616-15.896s-1.43-8.468-5.409-12.447c-3.978-3.978-8.163-5.753-12.724-5.582s-9.984 2.391-16 8.408l-21.201 21.201 25.518 25.518zM510.248 889.219c-237.248 0-429.664-192.417-429.664-429.664s192.417-429.664 429.664-429.664c237.248 0 429.664 192.417 429.664 429.664s-192.417 429.664-429.664 429.664zM510.248 881.423c233.042 0 421.868-188.826 421.868-421.868s-188.826-421.868-421.868-421.868c-233.042 0-421.893 188.826-421.893 421.868s188.851 421.868 421.893 421.868zM768.938 303.536c-3.533-0.002-6.397-2.865-6.399-6.398v0-89.875h-89.875c-3.533-0.002-6.397-2.865-6.399-6.398v0c0.002-3.533 2.865-6.397 6.398-6.399h102.672v102.672c-0.002 3.533-2.865 6.397-6.398 6.399v0zM761.461 213.538c-1.685-0.020-3.211-0.689-4.342-1.768l0.003 0.002c-1.231-1.169-1.997-2.818-1.997-4.646 0-1.706 0.667-3.256 1.755-4.403l-0.003 0.003 2.28-2.378c1.169-1.231 2.818-1.997 4.646-1.997 1.706 0 3.256 0.667 4.403 1.755l-0.003-0.003c1.231 1.169 1.997 2.818 1.997 4.646 0 1.706-0.667 3.256-1.755 4.403l0.003-0.003-2.255 2.378c-1.17 1.239-2.824 2.011-4.658 2.011-0.026 0-0.051 0-0.077 0h0.004zM703.996 270.807c-1.68-0.062-3.185-0.762-4.29-1.863v0c-1.164-1.159-1.884-2.763-1.884-4.535s0.72-3.376 1.884-4.535v0l4.070-4.070c1.159-1.164 2.763-1.884 4.535-1.884 1.76 0 3.354 0.71 4.511 1.86v0c1.164 1.159 1.884 2.763 1.884 4.535 0 1.76-0.71 3.354-1.86 4.511v0l-4.094 4.094c-1.16 1.168-2.767 1.891-4.543 1.891-0.075 0-0.15-0.001-0.224-0.004h0.011zM732.606 242.099c-1.671-0.068-3.167-0.767-4.266-1.863v0c-1.171-1.161-1.896-2.769-1.896-4.548 0-1.766 0.715-3.365 1.872-4.523v0l4.094-4.070c1.159-1.164 2.763-1.884 4.535-1.884 1.76 0 3.354 0.71 4.511 1.86v0c1.156 1.158 1.872 2.757 1.872 4.523s-0.715 3.365-1.872 4.523v0l-4.070 4.094c-1.16 1.169-2.767 1.892-4.544 1.892-0.083 0-0.166-0.002-0.249-0.005h0.012zM677.372 297.628c-1.682-0.013-3.208-0.673-4.342-1.744l0.003 0.003c-1.239-1.17-2.010-2.824-2.010-4.657 0-1.712 0.672-3.267 1.767-4.416l-0.002 0.003 2.255-2.378c1.169-1.231 2.818-1.997 4.646-1.997 1.706 0 3.256 0.667 4.403 1.755l-0.003-0.003c1.231 1.169 1.997 2.818 1.997 4.646 0 1.706-0.667 3.256-1.755 4.403l0.003-0.003-2.255 2.403c-1.168 1.225-2.813 1.986-4.635 1.986-0.025 0-0.051 0-0.076 0h0.004zM245.256 724.644v-102.672c0.002-3.534 2.867-6.399 6.402-6.399 0.008 0 0.015 0 0.023 0h-0.001c3.533 0.002 6.397 2.865 6.399 6.398v0 89.875h89.875c3.533 0.002 6.397 2.865 6.399 6.398v0c-0.002 3.533-2.865 6.397-6.398 6.399h-102.697zM256.558 720.746c-1.671-0.068-3.167-0.767-4.266-1.863v0c-1.156-1.158-1.872-2.757-1.872-4.523s0.715-3.365 1.872-4.523v0l2.255-2.255c1.158-1.156 2.757-1.872 4.523-1.872s3.365 0.715 4.523 1.872v0c1.156 1.158 1.872 2.757 1.872 4.523s-0.715 3.365-1.872 4.523v0l-2.255 2.255c-1.158 1.155-2.756 1.869-4.52 1.869-0.092 0-0.183-0.002-0.273-0.006h0.013zM283.427 693.901c-1.671-0.068-3.167-0.767-4.266-1.863v0c-1.171-1.161-1.896-2.769-1.896-4.548 0-1.766 0.715-3.365 1.872-4.523v0l4.094-4.070c1.159-1.164 2.763-1.884 4.535-1.884 1.76 0 3.354 0.71 4.511 1.86v0c1.156 1.158 1.872 2.757 1.872 4.523s-0.715 3.365-1.872 4.523v0l-4.070 4.094c-1.16 1.169-2.767 1.892-4.544 1.892-0.083 0-0.166-0.002-0.249-0.005h0.012zM312.062 665.193c-1.671-0.068-3.167-0.767-4.266-1.863v0c-1.171-1.161-1.896-2.769-1.896-4.548 0-1.766 0.715-3.365 1.872-4.523v0l4.070-4.070c1.161-1.171 2.769-1.896 4.548-1.896 1.766 0 3.365 0.715 4.523 1.872v0c1.156 1.158 1.872 2.757 1.872 4.523s-0.715 3.365-1.872 4.523v0l-4.070 4.094c-1.16 1.169-2.767 1.892-4.544 1.892-0.083 0-0.166-0.002-0.249-0.005h0.012zM340.672 636.657c-1.68-0.062-3.185-0.762-4.29-1.863v0c-1.156-1.158-1.872-2.757-1.872-4.523s0.715-3.365 1.872-4.523v0l2.255-2.28c1.159-1.164 2.763-1.884 4.535-1.884s3.376 0.72 4.535 1.884v0c1.164 1.159 1.884 2.763 1.884 4.535s-0.72 3.376-1.884 4.535v0l-2.255 2.255c-1.158 1.155-2.756 1.868-4.52 1.868-0.092 0-0.183-0.002-0.273-0.006h0.013zM251.679 303.536c-0.006 0-0.014 0-0.022 0-3.534 0-6.4-2.864-6.402-6.399v0-102.672h102.697c3.533 0.002 6.397 2.865 6.399 6.398v0c-0.002 3.533-2.865 6.397-6.398 6.399h-89.875v89.875c-0.002 3.533-2.865 6.397-6.398 6.399v0zM257.563 214.789c-1.674-0.075-3.17-0.783-4.265-1.887v0l-2.255-2.255c-1.156-1.158-1.872-2.757-1.872-4.523s0.715-3.365 1.872-4.523v0c1.158-1.156 2.757-1.872 4.523-1.872s3.365 0.715 4.523 1.872v0l2.255 2.255c1.156 1.158 1.872 2.757 1.872 4.523s-0.715 3.365-1.872 4.523v0c-1.16 1.169-2.767 1.892-4.544 1.892-0.083 0-0.166-0.002-0.249-0.005h0.012zM314.881 272.058c-1.683-0.069-3.188-0.777-4.29-1.887v0l-4.070-4.070c-1.164-1.159-1.884-2.763-1.884-4.535s0.72-3.376 1.884-4.535v0c1.158-1.156 2.757-1.872 4.523-1.872 1.778 0 3.387 0.725 4.547 1.896v0l4.070 4.094c1.149 1.157 1.859 2.751 1.859 4.511 0 1.772-0.72 3.376-1.884 4.535v0c-1.158 1.154-2.755 1.868-4.519 1.868-0.083 0-0.166-0.002-0.249-0.005h0.012zM286.247 243.35c-1.683-0.069-3.188-0.777-4.29-1.887v0l-4.070-4.070c-1.156-1.158-1.872-2.757-1.872-4.523 0-1.778 0.725-3.387 1.896-4.547v0c1.157-1.149 2.751-1.859 4.511-1.859 1.772 0 3.376 0.72 4.535 1.884v0l4.070 4.094c1.156 1.158 1.872 2.757 1.872 4.523s-0.715 3.365-1.872 4.523v0c-1.158 1.155-2.756 1.869-4.52 1.869-0.092 0-0.183-0.002-0.273-0.006h0.013zM341.505 298.878c-1.677-0.11-3.163-0.85-4.239-1.983l-0.003-0.003-2.255-2.378c-1.092-1.146-1.765-2.701-1.765-4.413 0-1.834 0.771-3.487 2.007-4.655l0.003-0.003c1.145-1.085 2.695-1.752 4.4-1.752 1.828 0 3.477 0.766 4.643 1.995l0.003 0.003 2.255 2.403c1.085 1.145 1.752 2.695 1.752 4.4 0 1.828-0.766 3.477-1.995 4.643l-0.003 0.003c-1.145 1.086-2.695 1.753-4.402 1.753-0.142 0-0.283-0.005-0.423-0.014l0.019 0.001zM672.665 724.644c-3.533-0.002-6.397-2.865-6.399-6.398v0c0.002-3.533 2.865-6.397 6.398-6.399h89.875v-89.875c0.002-3.533 2.865-6.397 6.398-6.399v0c3.533 0.002 6.397 2.865 6.399 6.398v0 102.672h-102.672zM764.624 719.496c-1.668-0.116-3.144-0.855-4.214-1.983l-0.003-0.003-2.255-2.378c-1.085-1.145-1.752-2.695-1.752-4.4 0-1.828 0.766-3.477 1.995-4.643l0.003-0.003c1.146-1.092 2.701-1.764 4.413-1.764 1.822 0 3.465 0.761 4.631 1.982l0.002 0.002 2.255 2.403c1.085 1.145 1.752 2.695 1.752 4.4 0 1.828-0.766 3.477-1.995 4.643l-0.003 0.003c-1.145 1.087-2.696 1.755-4.403 1.755-0.15 0-0.299-0.005-0.446-0.015l0.020 0.001zM737.926 692.651c-1.674-0.075-3.17-0.783-4.265-1.887v0l-4.070-4.094c-1.156-1.158-1.872-2.757-1.872-4.523s0.715-3.365 1.872-4.523v0c1.157-1.149 2.751-1.859 4.511-1.859 1.772 0 3.376 0.72 4.535 1.884v0l4.094 4.070c1.156 1.158 1.872 2.757 1.872 4.523 0 1.778-0.725 3.387-1.896 4.547v0c-1.158 1.155-2.756 1.869-4.52 1.869-0.092 0-0.183-0.002-0.273-0.006h0.013zM709.291 663.943c-1.674-0.075-3.17-0.783-4.265-1.887v0l-4.070-4.094c-1.156-1.158-1.872-2.757-1.872-4.523s0.715-3.365 1.872-4.523v0c1.158-1.156 2.757-1.872 4.523-1.872 1.778 0 3.387 0.725 4.547 1.896v0l4.070 4.070c1.156 1.158 1.872 2.757 1.872 4.523 0 1.778-0.725 3.387-1.896 4.547v0c-1.158 1.155-2.756 1.868-4.52 1.868-0.092 0-0.183-0.002-0.273-0.006h0.013zM680.706 635.406c-1.68-0.062-3.185-0.762-4.29-1.863v0l-2.255-2.28c-1.156-1.158-1.872-2.757-1.872-4.523s0.715-3.365 1.872-4.523v0c1.158-1.156 2.757-1.872 4.523-1.872s3.365 0.715 4.523 1.872v0l2.28 2.255c1.164 1.159 1.884 2.763 1.884 4.535s-0.72 3.376-1.884 4.535v0c-1.158 1.155-2.756 1.869-4.52 1.869-0.092 0-0.183-0.002-0.273-0.006h0.013z" />
<glyph unicode="&#xe90d;" glyph-name="list" horiz-adv-x="1081" d="M0 938.667h1080.889v-113.778h-1080.889v113.778zM0 483.556h1080.889v-113.778h-1080.889v113.778zM0 28.445h1080.889v-113.778h-1080.889v113.778z" />
<glyph unicode="&#xe90e;" glyph-name="malle" d="M1007.072 767.974h-409.725c-0.094 0.002-0.205 0.003-0.316 0.003-9.436 0-17.085-7.649-17.085-17.085 0-0.111 0.001-0.222 0.003-0.333v0.017-153.608c0-9.436 7.649-17.085 17.085-17.085v0c0.041 0 0.089-0.001 0.137-0.001 1.919 0 3.758 0.345 5.458 0.976l-0.108-0.035 21.317 7.21c3.538 1.011 7.601 1.593 11.8 1.593 24.585 0 44.515-19.93 44.515-44.515 0-18.852-11.719-34.967-28.269-41.457l-0.302-0.104c-4.149-1.328-8.921-2.093-13.872-2.093s-9.723 0.765-14.205 2.184l0.333-0.091-21.317 7.21c-1.616 0.559-3.479 0.882-5.417 0.882-7.508 0-13.886-4.844-16.178-11.577l-0.036-0.12c-0.594-1.585-0.938-3.417-0.94-5.328v-135.897h-136.209c-9.436 0-17.085-7.649-17.085-17.085v0c0-0.041-0.001-0.089-0.001-0.137 0-1.919 0.345-3.758 0.976-5.458l-0.035 0.108 7.21-21.317c1.011-3.538 1.593-7.601 1.593-11.8 0-24.585-19.93-44.515-44.515-44.515-18.852 0-34.967 11.719-41.457 28.269l-0.104 0.302c-1.328 4.149-2.093 8.921-2.093 13.872s0.765 9.723 2.184 14.205l-0.091-0.333 7.21 21.317c0.559 1.616 0.882 3.479 0.882 5.417 0 7.508-4.844 13.886-11.577 16.178l-0.12 0.036c-1.585 0.594-3.417 0.938-5.328 0.94h-153.295c-9.436 0-17.085-7.649-17.085-17.085v0-410.039c0 0 0 0 0-0.001 0-9.349 7.579-16.928 16.928-16.928 0.055 0 0.11 0 0.165 0.001h818.973c0.047 0 0.102-0.001 0.157-0.001 9.349 0 16.928 7.579 16.928 16.928 0 0 0 0.001 0 0.001v0 818.981c0.002 0.093 0.003 0.203 0.003 0.313 0 9.436-7.649 17.085-17.085 17.085-0.001 0-0.002 0-0.003 0v0zM581.202 90.689c-0.596-1.591-0.941-3.43-0.941-5.349 0-0.048 0-0.096 0.001-0.144v0.007-136.523h-376.182v376.182h112.855c-2.237-6.951-3.527-14.948-3.527-23.245 0-43.283 35.088-78.371 78.371-78.371s78.371 35.088 78.371 78.371c0 8.298-1.29 16.294-3.679 23.8l0.153-0.555h113.325v-136.523c-0.007-0.188-0.012-0.408-0.012-0.63 0-9.436 7.649-17.085 17.085-17.085 0.114 0 0.228 0.001 0.342 0.003h-0.017c0.041 0 0.089-0.001 0.137-0.001 1.919 0 3.758 0.345 5.458 0.976l-0.108-0.035 21.317 7.053c4.114 1.391 8.853 2.194 13.779 2.194 24.498 0 44.358-19.86 44.358-44.358s-19.86-44.358-44.358-44.358c-4.926 0-9.665 0.803-14.092 2.285l0.313-0.091-21.317 7.21c-1.616 0.559-3.479 0.882-5.417 0.882-7.508 0-13.886-4.844-16.178-11.577l-0.036-0.12zM989.987-51.32h-376.182v112.228c6.877-2.188 14.787-3.448 22.992-3.448 43.283 0 78.371 35.088 78.371 78.371s-35.088 78.371-78.371 78.371c-8.204 0-16.114-1.261-23.547-3.599l0.555 0.151v113.482h136.523c0.187-0.007 0.406-0.012 0.627-0.012 9.436 0 17.085 7.649 17.085 17.085 0 0.004 0 0.008 0 0.012v-0.001c-0.002 1.913-0.347 3.744-0.976 5.438l0.035-0.108-7.053 21.474c-1.394 4.118-2.199 8.862-2.199 13.793 0 24.501 19.862 44.363 44.363 44.363 19.569 0 36.179-12.671 42.073-30.256l0.091-0.313c1.415-4.116 2.232-8.859 2.232-13.793s-0.817-9.677-2.323-14.101l0.091 0.308-7.21-21.474c-0.559-1.616-0.882-3.479-0.882-5.417 0-7.508 4.844-13.886 11.577-16.178l0.12-0.036c1.64-0.479 3.526-0.764 5.475-0.784h136.534v-376.182zM989.987 358.406h-112.228c2.188 6.877 3.448 14.787 3.448 22.992 0 43.283-35.088 78.371-78.371 78.371s-78.371-35.088-78.371-78.371c0-8.204 1.261-16.114 3.599-23.547l-0.151 0.555h-113.482v112.855c7.172-2.422 15.432-3.819 24.018-3.819 17.201 0 33.092 5.609 45.944 15.097l-0.212-0.149c20.344 14.354 33.469 37.76 33.469 64.233 0 43.283-35.088 78.371-78.371 78.371-8.89 0-17.434-1.48-25.399-4.207l0.551 0.164v112.855h376.182zM491.075 791.642c-7.028 2.29-15.116 3.61-23.511 3.61s-16.483-1.32-24.066-3.764l0.555 0.155v129.94c0 0.001 0 0.002 0 0.003 0 9.436-7.649 17.085-17.085 17.085-0.11 0-0.22-0.001-0.33-0.003h-409.553c-9.436 0-17.085-7.649-17.085-17.085v0-409.569c0-9.436 7.649-17.085 17.085-17.085h129.94c-2.237-6.951-3.527-14.948-3.527-23.245 0-43.283 35.088-78.371 78.371-78.371s78.371 35.088 78.371 78.371c0 8.298-1.29 16.294-3.679 23.8l0.153-0.555h129.94c9.436 0 17.085 7.649 17.085 17.085v0 129.94c7.028-2.287 15.116-3.606 23.511-3.606 43.327 0 78.451 35.124 78.451 78.451 0 34.932-22.83 64.531-54.384 74.69l-0.555 0.154zM481.2 674.556c-4.123-1.34-8.868-2.113-13.793-2.113s-9.67 0.773-14.12 2.203l0.326-0.091-21.474 7.21c-1.616 0.559-3.479 0.882-5.417 0.882-7.508 0-13.886-4.844-16.178-11.577l-0.036-0.12c-0.594-1.585-0.938-3.417-0.94-5.328v-136.524h-136.523c-9.436 0-17.085-7.649-17.085-17.085v0c0-0.041-0.001-0.089-0.001-0.137 0-1.919 0.345-3.758 0.976-5.458l-0.035 0.108 7.21-21.474c1.394-4.118 2.199-8.862 2.199-13.793 0-24.501-19.862-44.363-44.363-44.363-19.569 0-36.179 12.671-42.073 30.256l-0.091 0.313c-1.415 4.116-2.232 8.859-2.232 13.793s0.817 9.677 2.323 14.101l-0.091-0.308 7.053 21.474c0.559 1.616 0.882 3.479 0.882 5.417 0 7.508-4.844 13.886-11.577 16.178l-0.12 0.036c-1.585 0.594-3.417 0.938-5.328 0.94h-136.524v375.399h376.182v-136.523c-0.002-0.099-0.003-0.215-0.003-0.331 0-9.161 7.211-16.638 16.266-17.066l0.038-0.001c0.041 0 0.089-0.001 0.137-0.001 1.919 0 3.758 0.345 5.458 0.976l-0.108-0.035 21.474 7.053c4.118 1.394 8.862 2.199 13.793 2.199 24.501 0 44.363-19.862 44.363-44.363 0-19.569-12.671-36.179-30.256-42.073l-0.313-0.091z" />
<glyph unicode="&#xe90f;" glyph-name="metro" horiz-adv-x="854" d="M353.582 491.028l70.023-114.163 74.414 114.163 24.959-70.254h-29.118v-39.518h166.391v39.518h-31.429l-108.848 280.554-91.977-162.232-96.368 162.232-110.465-280.554h-29.812v-39.518h166.622v39.518h-27.732l23.341 70.254zM390.789-47.202l332.783 332.783c47.158 61.429 75.572 139.395 75.572 223.999 0 0.465-0.001 0.93-0.003 1.394v-0.071c0 0.168 0 0.367 0 0.566 0 205.999-166.995 372.994-372.994 372.994s-372.994-166.995-372.994-372.994c0-104.174 42.706-198.374 111.567-266.046l0.054-0.053c4.855-4.852 7.858-11.556 7.858-18.962 0-0.077 0-0.154-0.001-0.231v0.012c0.006-0.209 0.009-0.456 0.009-0.703 0-14.805-12.002-26.807-26.807-26.807-7.637 0-14.529 3.194-19.411 8.318l-0.010 0.011c-77.24 77.243-125.014 183.951-125.014 301.817 0 235.737 191.103 426.84 426.84 426.84 234.682 0 425.128-189.395 426.829-423.676l0.001-0.161c0.001-0.393 0.002-0.859 0.002-1.325 0-98.071-33.4-188.342-89.446-260.057l0.702 0.933v-1.387l-337.405-335.325z" />
<glyph unicode="&#xe910;" glyph-name="option-selected" horiz-adv-x="1186" d="M528.384 829.867c-17.842 63.237-75.023 108.807-142.848 108.807s-125.006-45.571-142.596-107.764l-0.252-1.044h-194.56v-76.8h194.56c17.842-63.237 75.023-108.807 142.848-108.807s125.006 45.571 142.596 107.764l0.252 1.044h747.52v76.8h-747.52zM385.536 695.467c-52.621 0.521-95.078 43.3-95.078 95.996 0 53.019 42.981 96 96 96s95.997-42.978 96-95.995v0c-0.319-53.088-43.429-96.001-96.562-96.001-0.127 0-0.253 0-0.38 0.001h0.020zM876.646 573.867c-0.001 0-0.001 0-0.002 0-67.822 0-125.001-45.567-142.593-107.756l-0.252-1.044h-685.875v-76.8h686.080c17.842-63.237 75.023-108.807 142.848-108.807s125.006 45.571 142.596 107.764l0.252 1.044h256v76.8h-256c-17.826 63.231-74.995 108.8-142.807 108.8-0.086 0-0.173 0-0.259 0h0.013zM876.646 330.667c-52.621 0.521-95.078 43.3-95.078 95.996 0 53.019 42.981 96 96 96s95.997-42.978 96-95.995v0c-0.348-53.094-43.47-96-96.612-96-0.109 0-0.217 0-0.326 0.001h0.017zM385.536 209.067c-0.001 0-0.001 0-0.002 0-67.822 0-125.001-45.567-142.593-107.756l-0.252-1.044h-194.56v-76.8h194.56c17.842-63.237 75.023-108.807 142.848-108.807s125.006 45.571 142.596 107.764l0.252 1.044h747.52v76.8h-747.52c-17.937 63.175-75.062 108.691-142.835 108.8h-0.013zM385.536-34.133c-52.621 0.521-95.078 43.3-95.078 95.996 0 53.019 42.981 96 96 96s95.997-42.978 96-95.995v0c-0.319-53.088-43.429-96.001-96.562-96.001-0.127 0-0.253 0-0.38 0.001h0.020z" />
<glyph unicode="&#xe911;" glyph-name="parking" d="M651.894 516.736c-0.095 60.703-49.279 109.887-109.973 109.982h-149.985c-11.044 0-19.997-8.953-19.997-19.997v0-179.971c0-11.044 8.953-19.997 19.997-19.997v0h149.976c60.703 0.095 109.887 49.279 109.982 109.973v0.009zM411.933 586.724h129.979c38.654 0 69.989-31.335 69.989-69.989s-31.335-69.989-69.989-69.989v0h-129.979zM771.874 516.736c-0.095 126.967-102.996 229.868-229.954 229.963h-269.965c-11.044 0-19.997-8.953-19.997-19.997v0-599.902c0-11.044 8.953-19.997 19.997-19.997v0h119.98c11.044 0 19.997 8.953 19.997 19.997v0 159.974h129.979c126.967 0.095 229.868 102.996 229.963 229.954v0.009zM391.936 326.767c-11.044 0-19.997-8.953-19.997-19.997v0-159.974h-79.987v559.909h249.959c104.917 0 189.969-85.052 189.969-189.969s-85.052-189.969-189.969-189.969v0zM531.913-65.336c0-11.044-8.953-19.997-19.997-19.997s-19.997 8.953-19.997 19.997c0 11.044 8.953 19.997 19.997 19.997s19.997-8.953 19.997-19.997zM944.013 938.667h-864.026c-44.176 0-79.987-35.811-79.987-79.987v0-864.026c0.095-44.137 35.849-79.892 79.978-79.987h341.953c11.044 0 19.997 8.953 19.997 19.997s-8.953 19.997-19.997 19.997h-341.944c-22.050 0.094-39.899 17.944-39.993 39.985v864.035c0.094 22.050 17.944 39.899 39.985 39.993h864.035c22.050-0.094 39.899-17.944 39.993-39.985v-864.035c-0.094-22.050-17.944-39.899-39.985-39.993h-342.12c-11.044 0-19.997-8.953-19.997-19.997s8.953-19.997 19.997-19.997h342.111c44.137 0.095 79.892 35.849 79.987 79.978v864.035c-0.095 44.137-35.849 79.892-79.978 79.987h-0.009z" />
<glyph unicode="&#xe912;" glyph-name="pdf" d="M76.401 877.549v-962.881h810.080v114.68h-46.078v-68.601h-717.923v870.722h68.681v46.078zM168.081 938.668v-932.321h779.52v932.321zM214.16 892.588h687.363v-840.163h-687.363z" />
<glyph unicode="&#xe913;" glyph-name="print" d="M0 613.588v-503.873h186.921v48.762h-138.159v406.349h926.476v-406.349h-138.159v-48.762h186.921v503.873h-1024zM162.54 938.667v-373.841h698.921v373.841h-698.921zM211.302 889.905h601.397v-276.317h-601.397v276.317zM162.54 418.54v-503.873h698.921v503.873h-698.921zM211.302 369.778h601.397v-406.349h-601.397v406.349zM268.19 288.508v-48.762h487.619v48.762h-487.619zM268.19 190.984v-48.762h487.619v48.762h-487.619zM268.19 93.461v-48.762h487.619v48.762h-487.619z" />
<glyph unicode="&#xe914;" glyph-name="select-tab" d="M0 291.93h377.263v-377.263h-377.263v377.263zM0 938.667h377.263v-377.263h-377.263v377.263zM646.737 291.93h377.263v-377.263h-377.263v377.263zM646.737 938.667h377.263v-377.263h-377.263v377.263z" />
<glyph unicode="&#xe915;" glyph-name="shop" horiz-adv-x="956" d="M784.82 779.804l32.191 10.623 33.318-102.529-32.191-10.462zM734.763 660.375l32.191 10.462 33.64-102.368-32.191-10.623zM159.185 610.478c-0.548-3.8-0.861-8.189-0.861-12.65 0-22.884 8.234-43.846 21.901-60.083l-0.116 0.142 24.626-30.903v-285.213h34.284v257.529l24.626-16.096c2.61-1.901 5.88-3.042 9.416-3.042s6.806 1.14 9.462 3.074l-0.046-0.032 41.848 27.845 41.688-27.845c2.666-1.808 5.955-2.887 9.496-2.887s6.83 1.079 9.556 2.925l-0.060-0.038 41.688 27.845 41.688-27.845c2.666-1.808 5.955-2.887 9.496-2.887s6.83 1.079 9.556 2.925l-0.060-0.038 41.688 27.845 41.688-27.845c2.666-1.808 5.955-2.887 9.496-2.887s6.83 1.079 9.556 2.925l-0.060-0.038 41.688 27.845 34.123-22.856v-519.404h-375.831v-34.123h478.36c47.113 0 85.307 38.193 85.307 85.307v0 512c0 0.009 0 0.020 0 0.031 0 3.916-1.398 7.505-3.723 10.296l0.021-0.026 98.666 262.68c4.587 11.939 7.243 25.751 7.243 40.183 0 24.389-7.587 47.007-20.529 65.621l0.249-0.378c-19.769 29.285-52.834 48.287-90.336 48.287-0.099 0-0.198 0-0.297 0h0.015c-47.561-0.124-88.114-29.995-104.044-71.985l-0.255-0.767-26.075-71.142-32.191 32.191v60.519c-0.091 9.442-7.767 17.061-17.222 17.061 0 0-0.001 0-0.001 0h-187.030c-9.386-0.090-16.971-7.675-17.061-17.053v-29.303c-9.402 8.587-21.97 13.846-35.766 13.846-12.575 0-24.129-4.37-33.227-11.674l0.104 0.081v27.041c0 27.913-22.628 50.54-50.54 50.54s-50.54-22.628-50.54-50.54v0-27.041c-8.956 7.524-20.613 12.095-33.337 12.095-14.638 0-27.862-6.049-37.31-15.784l-0.012-0.013c-9.39-9.691-15.178-22.921-15.178-37.503s5.788-27.811 15.192-37.517l16.082-16.082c-6.241-2.765-11.575-6.449-16.098-10.947l0.002 0.002c-3.854-4.018-7.131-8.632-9.671-13.679l-0.148-0.324-19.315 35.893-30.099-16.096 44.102-81.444-5.794-3.38-1.931-1.61-66.314 60.197-23.178-25.109 65.67-60.197c-7.227-10.954-12.293-23.966-14.268-37.972l-0.057-0.497zM519.565 526.138l-41.688-27.845-41.688 27.845c-2.666 1.808-5.955 2.887-9.496 2.887s-6.83-1.079-9.556-2.925l0.060 0.038-41.366-27.523c0 1.61 0 3.219 0 4.829 0.015 42.302 34.311 76.588 76.615 76.588 33.369 0 61.755-21.333 72.265-51.104l0.165-0.536c-2.016-0.534-3.783-1.306-5.397-2.302l0.085 0.049zM563.184 510.042v0c-2.954 58.706-51.271 105.186-110.445 105.186-15.446 0-30.152-3.167-43.505-8.887l0.72 0.274v111.059h153.391zM819.264-0.026c0-28.268-22.916-51.184-51.184-51.184v0h-68.245v519.887l34.123 22.856 41.688-27.845c2.666-1.808 5.955-2.887 9.496-2.887s6.83 1.079 9.556 2.925l-0.060-0.038 24.626 16.096zM772.587 854.004c11.185 29.481 39.023 50.134 71.737 50.54h0.050c0.033 0 0.071 0 0.109 0 25.891 0 48.737-13.034 62.335-32.899l0.167-0.258c8.955-12.791 14.31-28.675 14.31-45.809 0-10.323-1.944-20.192-5.485-29.261l0.188 0.548-105.265-281.511-25.592-17.061-41.688 27.845c-2.666 1.808-5.955 2.887-9.496 2.887s-6.83-1.079-9.556-2.925l0.060 0.038-41.688-27.845-34.766 23.178zM700.801 759.684l-90.618-241.434-13.198-8.853v217.451l68.245 68.245zM494.939 870.422h153.552v-34.123h-153.552zM484.959 802.177h139.388l-51.184-51.184h-138.583zM244.492 832.758c3.322 3.371 7.934 5.463 13.036 5.472h0.002c0.050 0.001 0.109 0.001 0.168 0.001 5.052 0 9.614-2.097 12.864-5.468l0.005-0.005 25.109-25.592c3.101-3.171 7.422-5.137 12.202-5.137 2.333 0 4.556 0.468 6.581 1.316l-0.113-0.042c6.295 2.707 10.623 8.856 10.623 16.015 0 0.028 0 0.057 0 0.085v-0.004 68.084c-0.039 0.421-0.062 0.911-0.062 1.406 0 8.889 7.206 16.096 16.096 16.096 3.322 0 6.408-1.006 8.972-2.73l-0.058 0.036c4.77-2.852 7.915-7.989 7.915-13.861 0-0.333-0.010-0.664-0.030-0.991l0.002 0.045v-68.245c0.119-9.421 7.783-17.012 17.221-17.012 4.704 0 8.967 1.886 12.075 4.942l-0.002-0.002 25.109 25.753c3.336 3.272 7.911 5.291 12.957 5.291s9.621-2.019 12.96-5.294l-0.003 0.003c3.433-3.532 5.55-8.359 5.55-13.681s-2.117-10.149-5.555-13.686l0.004 0.005-58.105-59.232c-1.414-1.334-2.556-2.939-3.344-4.736l-0.036-0.093v-1.61c-0.457-1.31-0.798-2.839-0.959-4.42l-0.007-0.086s0 0 0-0.966v-150.655c-3.839-3.656-7.371-7.544-10.607-11.676l-0.177-0.235-32.191 68.567c-11.862 23.67-32.952 41.235-58.426 48.138l-0.645 0.149c-5.451 1.557-11.744 2.543-18.236 2.734l-0.113 0.003-4.346 5.151-6.438 7.404c-3.33 3.511-5.377 8.267-5.377 13.501 0 1.374 0.141 2.715 0.41 4.010l-0.022-0.127c0.659 3.701 2.316 6.935 4.68 9.51l-0.012-0.014c3.276 3.205 7.764 5.182 12.714 5.182 3.782 0 7.295-1.155 10.205-3.131l-0.064 0.041c3.014-2.65 6.992-4.266 11.347-4.266 9.512 0 17.223 7.711 17.223 17.223 0 5.157-2.266 9.784-5.857 12.94l-0.019 0.017-45.39 46.516c-3.349 3.538-5.408 8.327-5.408 13.597 0 5.352 2.124 10.208 5.574 13.771l-0.005-0.005zM193.147 605.811c2.358 17.027 11.737 31.49 25.068 40.592l0.202 0.13c9.043 6.213 20.227 9.923 32.278 9.923 22.26 0 41.564-12.658 51.107-31.169l0.151-0.322 43.619-92.71c-0.939-3.226-1.836-7.303-2.495-11.46l-0.080-0.612-9.014 5.955c-2.666 1.808-5.955 2.887-9.496 2.887s-6.83-1.079-9.556-2.925l0.060 0.038-41.366-27.845-37.986 25.27-3.541 4.668 43.941 33.962-20.924 27.041-44.263-34.284-3.863 4.668c-8.9 10.325-14.32 23.868-14.32 38.677 0 2.65 0.174 5.26 0.51 7.818l-0.032-0.301zM36.376-43.163c13.005-25.406 39.005-42.495 68.996-42.495 12.511 0 24.327 2.974 34.78 8.253l-0.442-0.203 13.842 6.921 13.842-6.921c10.047-5.070 21.898-8.041 34.442-8.048h0.002c0.146-0.001 0.319-0.002 0.491-0.002 29.824 0 55.651 17.113 68.198 42.055l0.2 0.438 5.955 11.911c19.061 37.532 30.33 81.803 30.581 128.682v0.082c0.003 0.253 0.004 0.551 0.004 0.85 0 49.336-39.995 89.33-89.33 89.33-17.536 0-33.892-5.053-47.692-13.783l0.367 0.217v13.52c0 37.691-30.554 68.245-68.245 68.245v0-34.123c18.845 0 34.123-15.277 34.123-34.123v0-13.52c-13.309 8.483-29.53 13.52-46.928 13.52-0.025 0-0.050 0-0.075 0h0.004c-49.425 0-89.491-40.067-89.491-89.491v0c0.079-46.941 11.308-91.24 31.18-130.416l-0.76 1.651zM89.491 153.203c0.163 0.002 0.355 0.003 0.547 0.003 15.083 0 28.729-6.156 38.56-16.094l12.881-12.881c3.106-3.054 7.369-4.939 12.072-4.939s8.966 1.885 12.074 4.941l-0.002-0.002 13.037 12.876c10.062 10.288 24.084 16.666 39.596 16.666 30.579 0 55.369-24.789 55.369-55.369 0-0.087 0-0.175-0.001-0.262v0.013c-0.176-41.485-10.084-80.616-27.558-115.28l0.678 1.484-5.955-11.911c-7.1-14.133-21.483-23.662-38.092-23.662-0.132 0-0.264 0.001-0.396 0.002h0.020c-0.077-0.001-0.169-0.001-0.261-0.001-6.892 0-13.395 1.666-19.128 4.617l0.235-0.11-22.212 10.784c-2.227 1.14-4.858 1.809-7.645 1.809s-5.419-0.668-7.742-1.854l0.097 0.045-21.407-10.784c-5.511-2.842-12.028-4.508-18.933-4.508-0.134 0-0.268 0.001-0.402 0.002h0.020c-16.663 0.138-31.026 9.846-37.875 23.892l-0.111 0.252-5.955 11.911c-16.871 33.166-26.791 72.312-26.88 113.767v0.029c0.273 30.371 24.957 54.886 55.367 54.886 0.001 0 0.001 0 0.002 0v0z" />
<glyph unicode="&#xe916;" glyph-name="smile" d="M512 938.667c-282.77 0-512-229.23-512-512s229.23-512 512-512c282.77 0 512 229.23 512 512v0c-0.308 282.645-229.354 511.691-511.97 512h-0.030zM512 62.036c-201.256 0.308-364.323 163.374-364.631 364.601v2.197h728.99s0-1.354 0-2.167c-0.308-201.161-163.22-364.169-364.316-364.631h-0.044z" />
<glyph unicode="&#xe917;" glyph-name="star-bg" horiz-adv-x="1076" d="M538.511 938.667l166.248-336.915 371.711-54.127-268.98-262.352 63.517-370.606-332.496 175.085-333.049-175.085 63.517 370.606-268.98 262.352 371.711 54.127 166.8 336.915z" />
<glyph unicode="&#xe918;" glyph-name="star-gray" horiz-adv-x="1077" d="M538.368 938.475l-22.016-44.608-144.384-292.224-372.032-54.144 269.248-262.272-63.616-370.56 332.8 174.72 332.8-174.72-63.552 370.56 269.184 262.272-372.032 54.144-166.4 336.832zM538.368 827.563l133.76-270.848 299.008-43.52-216.384-210.816 51.2-297.92-267.584 140.48-267.52-140.48 51.136 297.92-216.384 210.816 299.008 43.52 133.76 270.848z" />
<glyph unicode="&#xe919;" glyph-name="star-white" horiz-adv-x="1076" d="M538.511 813.843l116.539-236.393 12.703-26.511 28.721-3.866 261.247-38.11-209.881-204.358 4.971-28.721 44.738-260.142-233.631 122.615-25.407 13.808-25.959-13.808-233.631-122.615 44.738 260.142 7.732 28.721-20.988 20.436-191.655 183.922 261.247 38.11 28.721 4.971 12.703 26.511 117.092 235.288zM538.511 938.667l-165.696-336.915-372.816-54.127 268.98-262.352-63.517-370.606 331.392 175.085 331.392-175.085-63.517 370.606 268.98 262.352-371.711 55.232-163.487 335.81z" />
<glyph unicode="&#xe91a;" glyph-name="burger-smart" horiz-adv-x="1270" d="M0 938.667h1269.76v-122.88h-1269.76v122.88zM0 488.107h1269.76v-122.88h-1269.76v122.88zM0 37.547h1024v-122.88h-1024v122.88z" />
<glyph unicode="&#xe91b;" glyph-name="top-arrow" horiz-adv-x="556" d="M277.69 938.58l-277.865-277.953 31.671-31.671 246.194 246.194 246.282-246.194 31.671 31.671-277.953 277.953zM258.88 882.237v-967.542h44.794v967.542h-44.794z" />
<glyph unicode="&#xe91c;" glyph-name="train" horiz-adv-x="811" d="M298.575 853.395c-23.615 0-42.758 19.144-42.758 42.759s19.144 42.759 42.759 42.759c23.615 0 42.759-19.144 42.759-42.759 0-0.086 0-0.173-0.001-0.259v0.013c-0.139-23.509-19.229-42.513-42.758-42.513 0 0-0.001 0-0.001 0v0zM511.877 853.395c-23.615 0-42.758 19.144-42.758 42.759s19.144 42.759 42.759 42.759c23.615 0 42.759-19.144 42.759-42.759 0-0.086 0-0.173-0.001-0.259v0.013c-0.139-23.509-19.229-42.513-42.758-42.513 0 0-0.001 0-0.001 0v0zM256.061 703.985h298.575v42.759h-298.575zM149.41 106.836c-35.287 0-63.892 28.606-63.892 63.892s28.606 63.892 63.892 63.892c35.287 0 63.892-28.606 63.892-63.892v0c0-35.287-28.606-63.892-63.892-63.892v0zM661.287 106.836c-35.287 0-63.892 28.606-63.892 63.892s28.606 63.892 63.892 63.892c35.287 0 63.892-28.606 63.892-63.892v0c0-0.073 0-0.16 0-0.246 0-35.151-28.496-63.647-63.647-63.647-0.087 0-0.173 0-0.26 0.001h0.013zM767.939 320.139h-725.18v-170.79c0-47.094 38.178-85.272 85.272-85.272v0h554.636c47.094 0 85.272 38.178 85.272 85.272v0zM767.939 639.601h-725.18v-298.329h725.18zM767.939 703.493c0 47.094-38.178 85.272-85.272 85.272v0h-554.636c0 0-0.001 0-0.001 0-46.922 0-84.992-37.898-85.27-84.754v-42.54h725.18zM682.667 21.318h-64.138l42.759-106.651h-42.759l-42.513 106.651h-341.333l-42.759-106.651h-42.513l42.513 106.651h-63.892c-70.653 0.14-127.891 57.378-128.031 128.017v554.649c0.14 70.653 57.378 127.891 128.017 128.031h554.649c0 0 0 0 0 0 70.759 0 128.136-57.291 128.276-128.017v-554.649c-0.14-70.739-57.518-128.031-128.276-128.031 0 0 0 0 0 0v0z" />
<glyph unicode="&#xe91d;" glyph-name="visual-selected" horiz-adv-x="1224" d="M703.154 936.836l-703.154-117.192v-904.985h703.154v1022.177zM625.025 844.669v-851.882h-546.897v760.732l546.897 91.15zM625.025 938.362v-1023.703h598.983v903.967l-598.983 119.736zM703.154 843.041l442.726-88.505v-761.75h-442.726v850.254zM528.382 695.534l-364.598-52.085 10.987-77.314 364.598 52.085-10.987 77.314zM801.933 695.229l-15.259-76.602 260.427-52.085 15.259 76.602-260.427 52.085zM169.278 409.471v-78.128h364.598v78.128h-364.598zM169.278 201.129v-78.128h364.598v78.128h-364.598zM794.303 409.471v-78.128h260.427v78.128h-260.427zM794.303 201.129v-78.128h260.427v78.128h-260.427z" />
<glyph unicode="&#xe91e;" glyph-name="map-locale" horiz-adv-x="930" d="M139.188 217.886c0.342 10.942 9.124 19.724 20.034 20.065l0.032 0.001h4.778c11.434 0 20.703-9.269 20.703-20.703s-9.269-20.703-20.703-20.703v0h-4.778c-11.434 0-20.703 9.269-20.703 20.703v0zM587.008 652.011c-27.609-9.365-47.125-35.051-47.125-65.295 0-37.996 30.802-68.798 68.798-68.798 0.107 0 0.214 0 0.321 0.001h187.266c37.989 0.009 68.781 30.807 68.781 68.798 0 30.243-19.514 55.928-46.638 65.151l-0.485 0.143c-1.939 0.663-4.172 1.045-6.495 1.045-9.073 0-16.782-5.836-19.579-13.958l-0.044-0.146c-0.738-2.022-1.164-4.356-1.164-6.79 0-8.939 5.754-16.535 13.761-19.284l0.143-0.043c9.951-4.252 16.797-13.957 16.797-25.26 0-14.314-10.979-26.063-24.975-27.286l-0.103-0.007h-187.282c-0.205-0.006-0.447-0.009-0.689-0.009-15.128 0-27.392 12.264-27.392 27.392 0 12.189 7.962 22.519 18.969 26.072l0.194 0.054c10.44 1.157 18.486 9.931 18.486 20.584 0 11.434-9.269 20.703-20.703 20.703-4.012 0-7.758-1.141-10.93-3.117l0.088 0.051zM277.738 46.847c-2.022 0.738-4.356 1.164-6.79 1.164-8.939 0-16.535-5.754-19.284-13.761l-0.043-0.143c-0.67-1.965-1.057-4.228-1.057-6.581 0-9.136 5.828-16.91 13.969-19.809l0.147-0.046c10.61-3.471 18.24-13.039 18.79-24.463l0.002-0.062c0-0.001 0-0.001 0-0.002 0-15.128-12.264-27.392-27.392-27.392-0.112 0-0.224 0.001-0.335 0.002h-186.947c-0.104-0.001-0.227-0.002-0.35-0.002-15.128 0-27.392 12.264-27.392 27.392 0 12.182 7.952 22.506 18.948 26.066l0.194 0.054c5.345 3.795 8.791 9.961 8.791 16.933 0 11.434-9.269 20.703-20.703 20.703-0.516 0-1.027-0.019-1.533-0.056l0.068 0.004c-27.122-9.637-46.194-35.080-46.194-64.978 0-37.776 30.446-68.44 68.137-68.794h186.042c0.096 0 0.209-0.001 0.323-0.001 37.996 0 68.798 30.802 68.798 68.798 0 29.896-19.069 55.338-45.707 64.827l-0.481 0.149zM86.634 216.293c0-25.799 38.539-101.604 55.102-134.091 0 0 17.518-35.354 18.792-36.628h2.23c1.709 2.389 3.208 5.118 4.367 8.019l0.092 0.262 14.333 28.347c16.562 31.851 55.102 108.292 55.102 134.091 0.101 1.463 0.159 3.17 0.159 4.89 0 41.514-33.654 75.168-75.168 75.168s-75.168-33.654-75.168-75.168c0-1.721 0.058-3.428 0.172-5.12l-0.012 0.229zM930.040 917.964v-148.106c0-11.434-9.269-20.703-20.703-20.703v0h-186.327v-95.552h16.562c11.434 0 20.703-9.269 20.703-20.703s-9.269-20.703-20.703-20.703v0h-74.212c-11.434 0-20.703 9.269-20.703 20.703s9.269 20.703 20.703 20.703v0h16.244v264.042c-0.002 0.095-0.002 0.207-0.002 0.319 0 11.434 9.269 20.703 20.703 20.703 0.001 0 0.002 0 0.003 0h207.029c11.434 0 20.703-9.269 20.703-20.703v0zM761.232 447.211h-592.423c-70.363 0-127.403 57.040-127.403 127.403s57.040 127.403 127.403 127.403v0h416.607c0.77-0.101 1.66-0.159 2.563-0.159 11.434 0 20.703 9.269 20.703 20.703s-9.269 20.703-20.703 20.703c-0.903 0-1.793-0.058-2.666-0.17l0.103 0.011h-416.607c-2.188 0.101-4.753 0.159-7.331 0.159-93.23 0-168.809-75.578-168.809-168.809s75.578-168.809 168.809-168.809c2.578 0 5.143 0.058 7.693 0.172l-0.362-0.013h592.423c70.363 0 127.403-57.040 127.403-127.403s-57.040-127.403-127.403-127.403v0h-416.607c-11.434 0-20.703-9.269-20.703-20.703s9.269-20.703 20.703-20.703v0h416.607c93.23 0 168.809 75.578 168.809 168.809s-75.578 168.809-168.809 168.809v0z" />
<glyph unicode="&#xe91f;" glyph-name="checkbox" horiz-adv-x="768" d="M704-85.333c-35.346 0-64 28.654-64 64v0 896c0 35.346 28.654 64 64 64s64-28.654 64-64v0-896c0-35.346-28.654-64-64-64v0zM64-85.333c-35.346 0-64 28.654-64 64v0 896c0 35.346 28.654 64 64 64v0c35.346 0 64-28.654 64-64v0-896c0-35.346-28.654-64-64-64v0z" />
<glyph unicode="&#xe920;" glyph-name="arrow-slider-top" horiz-adv-x="1872" d="M1784.409-85.82l88.078 88.078-936.010 936.010-936.010-936.010 88.078-88.078 847.932 847.932 847.932-847.932z" />
<glyph unicode="&#xe921;" glyph-name="arrow-slider-bottom" horiz-adv-x="1872" d="M87.591 939.154l-88.078-88.078 936.010-936.010 936.010 936.010-88.078 88.078-847.932-847.932-847.932 847.932z" />
<glyph unicode="&#xe922;" glyph-name="phone" d="M535.843 816.523v0c0.126 0 0.275 0 0.424 0 200.757 0 363.503-162.746 363.503-363.503 0-0.735-0.002-1.47-0.007-2.205l0.001 0.113c0-23.102 18.728-41.83 41.83-41.83v0 0c0.016 0 0.034 0 0.052 0 22.366 0 40.633 17.554 41.774 39.637l0.004 0.102c0.015 1.369 0.024 2.987 0.024 4.606 0 244.882-198.516 443.399-443.399 443.399-0.744 0-1.487-0.002-2.23-0.005h0.115c-17.187-5.459-29.423-21.275-29.423-39.948s12.236-34.489 29.127-39.866l0.296-0.081zM1024 113.778c-1.546 40.942-19.208 77.478-46.785 103.677l-0.065 0.061c-39.524 43.237-88.939 76.765-144.706 97.075l-2.536 0.807c-13.608 4.063-29.245 6.401-45.428 6.401-48.278 0-91.695-20.811-121.77-53.951l-0.122-0.137-56.052-53.961c-65.059 37.754-121.126 81.435-170.564 131.661l-0.102 0.104-5.020 5.438c-50.304 49.279-94.088 104.913-130.133 165.678l-2.050 3.734 53.961 54.797c33.473 30.214 54.42 73.757 54.42 122.192 0 16.073-2.307 31.608-6.607 46.29l0.292-1.162c-21.212 59.104-54.723 109.31-97.676 149.56l-0.207 0.192c-27.727 28.682-66.546 46.489-109.525 46.489-39.164 0-74.875-14.787-101.854-39.081l0.137 0.122c-56.851-58.22-91.923-137.926-91.923-225.824 0-5.023 0.115-10.019 0.341-14.986l-0.026 0.705c0-164.392 91.19-352.627 241.778-501.961v0c29.232-29.323 60.344-56.723 93.159-82.020l2.214-1.64c6.717-4.798 15.095-7.671 24.144-7.671 12.761 0 24.187 5.714 31.86 14.723l0.049 0.059c4.798 6.717 7.671 15.095 7.671 24.144 0 12.761-5.714 24.187-14.723 31.86l-0.059 0.049c-32.462 24.801-61.248 49.874-88.355 76.642l0.094-0.093c-135.529 135.529-217.098 302.431-217.935 446.327-0.211 3.817-0.331 8.283-0.331 12.778 0 64.536 24.771 123.286 65.323 167.262l-0.155-0.17c12.743 11.435 29.677 18.428 48.244 18.428 20.474 0 38.962-8.503 52.126-22.17l0.022-0.023c103.739-106.667 96.209-157.699 50.614-204.549l-74.039-74.876c-7.060-7.473-11.4-17.58-11.4-28.701 0-5.636 1.114-11.011 3.135-15.917l-0.101 0.278c43.632-84.417 98.122-156.53 162.796-218.031l0.341-0.322 5.020-5.020c62.002-64.022 134.079-117.805 213.767-158.896l4.586-2.149c4.628-1.919 10.004-3.033 15.639-3.033 11.121 0 21.228 4.34 28.721 11.418l-0.020-0.019 74.876 74.039c46.85 45.595 97.464 53.124 204.967-50.196 13.651-13.115 22.132-31.523 22.132-51.912 0-18.703-7.137-35.74-18.835-48.535l0.050 0.055c-43.793-40.593-102.631-65.497-167.285-65.497-3.838 0-7.655 0.088-11.45 0.261l0.538-0.020h-2.092c-71.905 2.404-139.296 19.266-200.161 47.752l3.141-1.321c-7.296 6.354-16.898 10.227-27.404 10.227-23.102 0-41.83-18.728-41.83-41.83 0-21.557 16.307-39.305 37.258-41.583l0.186-0.016c66.922-31.508 145.076-50.974 227.492-53.52l0.901-0.022h2.51c3.495-0.135 7.599-0.211 11.721-0.211 86.786 0 165.627 34.015 223.92 89.439l-0.138-0.13c24.52 26.929 39.535 62.888 39.535 102.353 0 2.841-0.078 5.665-0.231 8.468l0.017-0.39zM738.719 653.804c-27.64 28.226-62.792 48.994-102.221 59.070l-1.518 0.329c-6.403 4.183-14.243 6.672-22.664 6.672-23.102 0-41.83-18.728-41.83-41.83s18.728-41.83 41.83-41.83c0.468 0 0.934 0.008 1.398 0.023l-0.068-0.002c27.154-6.653 50.455-20.447 68.557-39.274l0.044-0.046c18.474-17.901 32.075-40.727 38.687-66.362l0.215-0.984c5.489-16.498 20.537-28.291 38.418-28.861l0.066-0.002c1.698-0.291 3.653-0.457 5.647-0.457s3.949 0.166 5.853 0.485l-0.206-0.029c16.676 5.757 28.439 21.319 28.439 39.629 0 3.604-0.456 7.102-1.313 10.439l0.063-0.29c-10.39 40.815-31.162 75.834-59.35 103.273l-0.049 0.047z" />
<glyph unicode="&#xe923;" glyph-name="slider-arrow-left" horiz-adv-x="1895" d="M511.694 938.936l-511.425-512.231 511.425-511.559 48.656 48.656-462.903 462.903 463.038 463.575-48.79 48.656zM95.027 467.296v-68.817h1800.134v68.817h-1800.134z" />
<glyph unicode="&#xe924;" glyph-name="slider-arrow-min_left" horiz-adv-x="1045" d="M437.607 864.006l-437.615-437.065 437.615-437.615 79.368 79.368-358.138 358.138 358.138 357.697-79.368 79.477zM116.95 477.475v-112.252h928.391v112.252h-928.391z" />
<glyph unicode="&#xe925;" glyph-name="slider-arrow-right" horiz-adv-x="1895" d="M1383.306-85.602l511.425 512.231-511.425 511.559-48.656-48.656 462.903-462.903-463.038-463.575 48.79-48.656zM1799.973 386.038v68.817h-1800.134v-68.817h1800.134z" />
<glyph unicode="&#xe926;" glyph-name="slider-arrow-min_right" horiz-adv-x="1045" d="M607.727-10.672l437.615 437.065-437.615 437.615-79.368-79.368 358.138-358.138-358.138-357.697 79.368-79.477zM928.384 375.859v112.252h-928.391v-112.252h928.391z" />
<glyph unicode="&#xe927;" glyph-name="panel-arrow-left" horiz-adv-x="1856" d="M512.195 938.539l-512.452-511.81 512.452-512.58 92.94 92.94-419.384 419.512 419.384 418.87-92.94 93.068zM136.714 498.359v-131.451h1719.384v131.451h-1719.384z" />
<glyph unicode="&#xe928;" glyph-name="panel-arrow-right" horiz-adv-x="1856" d="M1344.082-85.333l-92.673 92.673 418.67 419.327-418.67 419.327 92.673 92.673 512-512-512-512zM0 486.477h1719.374v-131.451h-1719.374v131.451z" />
<glyph unicode="&#xe929;" glyph-name="checked" horiz-adv-x="1529" d="M1393.597 938.479l-751.412-751.412-505.461 505.461-136.535-136.347 641.996-641.996 887.759 887.759-136.347 136.535z" />
</font>
</defs>
</svg>
