<svg xmlns="http://www.w3.org/2000/svg" viewBox="0 0 186.35 26.5"><path d="M7.21 26H0V.06h7.21a13 13 0 110 26z" fill="#eb5c37"/><path fill="#0cb6cd" d="M62.56 11.53L51.05.02v25.89h23.01V.02l-11.5 11.51z"/><path d="M35.36.06a13 13 0 1013 13 13 13 0 00-13-13zm0 22.21A9.24 9.24 0 0126.12 13h18.47a9.24 9.24 0 01-9.23 9.27z" fill="#ffd500"/><path d="M92.2 26.5c-3 0-8-.85-10.14-4.33l3.29-3.56c1.2 1.74 4.38 3.17 6.85 3.17 3.25 0 4.53-1.5 4.53-3s-.89-2.36-4.14-3.22c-6.31-1.62-9.71-3.4-9.71-8.2 0-4.45 3.67-7.16 9.28-7.16 3.06 0 7 .55 9.1 3l-3 3.72a9.51 9.51 0 00-6.12-2.25c-2.09 0-3.63.78-3.63 2.6 0 1.43.5 2.09 4 3.13 4.72 1.39 9.83 2.4 9.83 8.4.04 5.2-4.91 7.7-10.14 7.7zm19.31-13.92v13.34h-5.26V0h.19l13.2 15.17L132.79 0h.2v25.92h-5.23V12.58l-7.93 9.28h-.43zm31.38 13.34h-5.26V.77h5.26zm4.65 0V.77h5.26v20.4h12.11v4.75zM168.39.77H186v4.45h-12.35V11h10.18v4.25h-10.18v6.19h12.7v4.45h-18z" fill="#fff"/></svg>