<svg xmlns="http://www.w3.org/2000/svg" viewBox="0 0 155.78 101.95"><path d="M15.14 102c-4.56 0-11.9-1.27-15.14-6.48l4.91-5.31c1.8 2.6 6.54 4.73 10.23 4.73 4.86 0 6.77-2.25 6.77-4.5s-1.33-3.53-6.19-4.8C6.3 83.16 1.21 80.5 1.21 73.33c0-6.64 5.5-10.69 13.88-10.69 4.56 0 10.52.81 13.58 4.45l-4.45 5.55a14.2 14.2 0 00-9.13-3.35c-3.12 0-5.44 1.15-5.44 3.87 0 2.14.76 3.12 6 4.68 7.06 2.08 14.69 3.59 14.69 12.55.01 7.8-7.34 11.61-15.2 11.61zM44 81.14v19.94h-7.87V62.35h.29L56.13 85l19.65-22.65h.29v38.73h-7.8V81.14L56.42 95h-.64zm46.87 19.94H83V63.51h7.86zm6.94 0V63.51h7.86V94h18.09v7.11zM129 63.51h26.25v6.64h-18.43v8.68H152v6.35h-15.18v9.25h19v6.65H129z" fill="#003347"/><path d="M16 54H1V.08h15A26.94 26.94 0 0116 54z" fill="#eb5c37"/><path fill="#0cb6cd" d="M130.88 23.89L106.99 0v53.76h47.78V0l-23.89 23.89z"/><path d="M74.39.08A26.94 26.94 0 10101.33 27 27 27 0 0074.39.08zm0 46.12A19.2 19.2 0 0155.21 27v-.11h38.36V27a19.2 19.2 0 01-19.18 19.2z" fill="#ffd500"/></svg>