<svg id="Слой_1" data-name="Слой 1" xmlns="http://www.w3.org/2000/svg" viewBox="0 0 106.14 69.46"><path d="M10.61 70C7.5 70 2.5 69.15.3 65.6L3.64 62c1.22 1.77 4.45 3.23 7 3.23 3.31 0 4.61-1.54 4.61-3.07s-.9-2.4-4.21-3.27c-6.42-1.65-9.89-3.47-9.89-8.35 0-4.53 3.74-7.29 9.46-7.29 3.11 0 7.16.56 9.25 3l-3 3.78a9.65 9.65 0 00-6.22-2.29c-2.13 0-3.71.79-3.71 2.64 0 1.46.51 2.13 4.1 3.19C15.77 55 21 56 21 62.14 21 67.46 15.93 70 10.61 70zm19.66-14.16v13.58h-5.36V43h.2l13.43 15.48L51.93 43h.2v26.42h-5.32V55.84l-8.07 9.45h-.44zm31.94 13.58h-5.36V43.83h5.36zm4.73 0V43.83h5.35v20.75h12.33v4.84zm21.22-25.59H106v4.52H93.52v5.91h10.36v4.33H93.52v6.31h12.92v4.52H88.16z" transform="translate(-.3 -.55)" fill="#f6f8fa"/><path d="M11.16 37.32H1V.61h10.2a18.36 18.36 0 110 36.71z" transform="translate(-.3 -.55)" fill="#eb5c37"/><path fill="#0cb6cd" d="M89.17 16.28L72.9 0v36.63h32.55V0L89.17 16.28z"/><path d="M51 .61A18.36 18.36 0 1069.34 19 18.37 18.37 0 0051 .61zM51 32a13.09 13.09 0 01-13.09-13v-.07h26.14V19A13.09 13.09 0 0151 32z" transform="translate(-.3 -.55)" fill="#ffd500"/></svg>