<svg xmlns="http://www.w3.org/2000/svg" viewBox="0 0 140.43 19.97"><path d="M5.43 19.6H0V.04h5.43a9.78 9.78 0 010 19.56z" fill="#eb5c37"/><path fill="#0cb6cd" d="M47.15 8.69L38.48.01v19.52h17.34V.01l-8.67 8.68z"/><path d="M26.64.04a9.78 9.78 0 109.78 9.78A9.79 9.79 0 0026.64.04zm0 16.74a7 7 0 01-7-7H33.6a7 7 0 01-6.96 7z" fill="#ffd500"/><path d="M69.48 19.97c-2.3 0-6-.64-7.64-3.26l2.48-2.69a7 7 0 005.16 2.39c2.45 0 3.41-1.13 3.41-2.27s-.67-1.78-3.12-2.42c-4.75-1.23-7.32-2.57-7.32-6.18 0-3.36 2.77-5.4 7-5.4 2.31 0 5.31.41 6.85 2.25l-2.22 2.8a7.13 7.13 0 00-4.61-1.69c-1.57 0-2.74.58-2.74 2 0 1.08.38 1.57 3 2.36 3.56 1.05 7.41 1.81 7.41 6.33.01 3.89-3.72 5.78-7.66 5.78zm14.6-10.5v10.06h-4V-.03h.14l10 11.43 9.86-11.43h.15v19.56h-3.95V9.47l-6 7h-.3zm23.6 10.06h-4V.58h4zm3.5 0V.58h4v15.39h9.12v3.58zM126.9.58h13.24v3.39h-9.28v4.34h7.67v3.21h-7.67v4.66h9.57v3.35H126.9z" fill="#003347"/></svg>